Coordinates
version=1
nRows=10
nColumns=46
inDegrees=yes

Units are S.I. units (second, meters, Newtons, ...)
Angles are in degrees.

endheader
time	pelvis_tilt	pelvis_list	pelvis_rotation	pelvis_tx	pelvis_ty	pelvis_tz	bb_angle	bb_tx	bb_ty	bb_tz	hip_flexion_r	hip_adduction_r	hip_rotation_r	knee_angle_r	knee_angle_r_beta	ankle_angle_r	subtalar_angle_r	mtp_angle_r	crank_angle_r	hip_flexion_l	hip_adduction_l	hip_rotation_l	knee_angle_l	knee_angle_l_beta	ankle_angle_l	subtalar_angle_l	mtp_angle_l	crank_angle_l	lumbar_extension	lumbar_bending	lumbar_rotation	arm_flex_r	arm_add_r	arm_rot_r	elbow_flex_r	pro_sup_r	wrist_flex_r	wrist_dev_r	arm_flex_l	arm_add_l	arm_rot_l	elbow_flex_l	pro_sup_l	wrist_flex_l	wrist_dev_l
      7.50000000	    -18.84201855	     10.19095128	     -0.54004108	      0.06797011	      1.00043557	     -0.18610979	      0.00000000	      0.50000000	      0.00000000	      0.25000000	     50.74367848	    -10.81459200	      0.87889996	     33.67133147	      0.58767560	    -13.36689469	     -2.75093117	      0.00000000	      0.00000000	     95.89178815	     -2.53976246	      3.14664242	    115.90856559	      2.02298610	    -26.47869341	     -8.83356820	      0.00000000	      0.00000000	    -52.09112364	    -10.87343618	     -2.72767979	     88.41750011	    -16.22270505	     36.45011791	     48.79577239	     40.18459197	      0.00000000	      0.00000000	     88.60003913	     -1.68215284	     21.00520116	     44.38072478	     41.28339109	      0.00000000	      0.00000000
      7.50500000	    -18.96015702	     10.37848466	     -0.22506271	      0.06849911	      1.00139938	     -0.18560180	      0.00000000	      0.50000000	      0.00000000	      0.25000000	     49.75232163	    -11.33677418	      0.38122575	     33.07865889	      0.57733151	    -13.49253944	     -2.42772241	      0.00000000	      0.00000000	     97.70519027	     -2.49964538	      3.18991750	    115.85132792	      2.02198712	    -28.19084412	     -8.09922818	      0.00000000	      0.00000000	    -52.23509186	    -11.13950033	     -3.27969331	     88.34340348	    -16.29116380	     36.32685349	     48.77837101	     40.18716469	      0.00000000	      0.00000000	     88.70475280	     -1.58557270	     21.05106901	     44.61043722	     41.31106570	      0.00000000	      0.00000000
      7.51000000	    -19.23794590	     10.46748377	      0.16246788	      0.06883351	      1.00223135	     -0.18533551	      0.00000000	      0.50000000	      0.00000000	      0.25000000	     48.97414923	    -11.80471227	     -0.09319681	     32.62877103	      0.56947949	    -13.81316701	     -1.94274857	      0.00000000	      0.00000000	     99.63102657	     -2.33017029	      3.23820828	    115.63859999	      2.01827431	    -30.36260939	     -7.66602617	      0.00000000	      0.00000000	    -52.18197241	    -11.13987470	     -3.58709900	     88.22251687	    -16.23896074	     36.18344027	     48.69299866	     40.18504529	      0.00000000	      0.00000000	     88.65891406	     -1.64797310	     21.14747747	     44.94927643	     41.35184140	      0.00000000	      0.00000000
      7.51500000	    -19.32348605	     10.49357489	      0.25900974	      0.06882970	      1.00285389	     -0.18519688	      0.00000000	      0.50000000	      0.00000000	      0.25000000	     48.23409517	    -12.06806625	     -0.52785230	     32.53516968	      0.56784583	    -13.76348280	     -1.67575845	      0.00000000	      0.00000000	    101.38856330	     -2.45612506	      3.40856481	    115.55016107	      2.01673076	    -31.92044731	     -7.12487127	      0.00000000	      0.00000000	    -52.29134480	    -11.30125389	     -3.86673532	     88.22214778	    -16.13840637	     36.01971699	     48.61729878	     40.17685250	      0.00000000	      0.00000000	     88.72341083	     -1.66496224	     21.23126629	     45.24768115	     41.38932975	      0.00000000	      0.00000000
      7.52000000	    -19.61146897	     10.49604349	      0.59167729	      0.06901092	      1.00343302	     -0.18528949	      0.00000000	      0.50000000	      0.00000000	      0.25000000	     47.73667424	    -12.46617823	     -1.08720523	     32.66326513	      0.57008152	    -13.48089517	     -1.30157131	      0.00000000	      0.00000000	    103.17137208	     -2.40673706	      3.49095503	    115.34157639	      2.01309027	    -33.16219398	     -6.64233355	      0.00000000	      0.00000000	    -52.22501607	    -11.16322925	     -4.52287214	     88.10828202	    -14.68917500	     34.00883034	     47.76455406	     40.13555104	      0.00000000	      0.00000000	     88.53097378	     -2.73841298	     22.10502528	     46.76020194	     41.46280503	      0.00000000	      0.00000000
      7.52500000	    -19.79710270	     10.44637213	      0.76691075	      0.06901404	      1.00397224	     -0.18558783	      0.00000000	      0.50000000	      0.00000000	      0.25000000	     47.25067654	    -12.71754610	     -1.53123195	     32.94184881	      0.57494372	    -13.25042599	     -1.24106579	      0.00000000	      0.00000000	    104.75336655	     -2.35322287	      3.64847478	    115.14694434	      2.00969330	    -33.94418911	     -6.04730315	      0.00000000	      0.00000000	    -52.20335308	    -11.16846005	     -4.67216236	     88.08304142	    -14.64781963	     33.87907022	     47.68428033	     40.13549840	      0.00000000	      0.00000000	     88.62623297	     -2.61472061	     22.15900817	     46.83967973	     41.45686749	      0.00000000	      0.00000000
      7.53000000	    -20.13526774	     10.36756221	      1.05270731	      0.06887286	      1.00437242	     -0.18598478	      0.00000000	      0.50000000	      0.00000000	      0.25000000	     47.06610375	    -13.01603530	     -2.04706681	     33.48861812	      0.58448665	    -12.98842418	     -1.19745445	      0.00000000	      0.00000000	    106.31724920	     -2.28478002	      3.73422924	    114.82869047	      2.00413872	    -34.41283015	     -5.49784127	      0.00000000	      0.00000000	    -52.02782925	    -11.07164366	     -4.81893891	     88.04010856	    -14.56883185	     33.62675358	     47.58786845	     40.12611609	      0.00000000	      0.00000000	     88.65760405	     -2.53349807	     22.20766828	     46.95795506	     41.45357734	      0.00000000	      0.00000000
      7.53500000	    -20.50259587	     10.28230456	      1.32508660	      0.06861771	      1.00479720	     -0.18658255	      0.00000000	      0.50000000	      0.00000000	      0.25000000	     47.02651622	    -13.31722418	     -2.52809085	     34.19189126	      0.59676108	    -12.76776007	     -1.18144407	      0.00000000	      0.00000000	    107.63718448	     -2.19302990	      3.72433715	    114.39010224	      1.99648392	    -34.55796010	     -5.20433095	      0.00000000	      0.00000000	    -51.83902628	    -10.99906263	     -5.00220113	     88.01684914	    -14.48357226	     33.30176784	     47.47419743	     40.10413056	      0.00000000	      0.00000000	     88.73773041	     -2.43518855	     22.25110906	     47.09412109	     41.45478864	      0.00000000	      0.00000000
      7.54000000	    -20.87226329	     10.15853323	      1.58515710	      0.06822259	      1.00516975	     -0.18736393	      0.00000000	      0.50000000	      0.00000000	      0.25000000	     47.17664931	    -13.60440139	     -2.99693668	     35.16459717	      0.61373800	    -12.60870819	     -1.25111678	      0.00000000	      0.00000000	    108.64158569	     -2.10781508	      3.63724947	    113.80496915	      1.98627142	    -34.30911319	     -5.23342741	      0.00000000	      0.00000000	    -51.62984625	    -10.85505041	     -5.11883323	     88.02840918	    -14.35426635	     32.89949901	     47.40043452	     40.08066381	      0.00000000	      0.00000000	     88.79099240	     -2.38062101	     22.29114371	     47.24707854	     41.45977687	      0.00000000	      0.00000000
      7.54500000	    -21.25102596	     10.14562311	      1.88727413	      0.06766813	      1.00573344	     -0.18829789	      0.00000000	      0.50000000	      0.00000000	      0.25000000	     47.48347093	    -14.03930449	     -3.34329832	     36.32067107	      0.63391530	    -12.22649579	     -0.96376442	      0.00000000	      0.00000000	    109.29901447	     -2.01124886	      3.29556209	    112.94773013	      1.97130977	    -33.95623016	     -5.59153288	      0.00000000	      0.00000000	    -51.43996580	    -10.71613426	     -5.67520950	     87.70865808	    -12.46816976	     28.99512061	     46.56660489	     39.93076197	      0.00000000	      0.00000000	     88.75508192	     -2.95907260	     22.66352218	     47.91314625	     41.30760697	      0.00000000	      0.00000000
